<!-- <svg class="w-5 h-5 text-white" viewBox="0 0 24 24" fill="none">
<path d="M12 4.75L19.25 9L12 13.25L4.75 9L12 4.75Z" stroke="currentColor" stroke-width="1.5" stroke-linecap="round" stroke-linejoin="round"></path>
<path d="M9.25 12L4.75 15L12 19.25L19.25 15L14.6722 12" stroke="currentColor" stroke-width="1.5" stroke-linecap="round" stroke-linejoin="round"></path>
</svg> -->


<svg xmlns="http://www.w3.org/2000/svg" height="24" viewBox="0 -960 960 960" width="24"><path d="M320-240h320v-80H320v80Zm0-160h320v-80H320v80ZM240-80q-33 0-56.5-23.5T160-160v-640q0-33 23.5-56.5T240-880h320l240 240v480q0 33-23.5 56.5T720-80H240Zm280-520v-200H240v640h480v-440H520ZM240-800v200-200 640-640Z"/></svg>